# Blender 4.2.1 LTS
# www.blender.org
mtllib lever_off.mtl
o Cube
v 0.200000 -0.406250 -0.200000
v 0.200000 -0.406250 0.200000
v -0.200000 -0.406250 -0.200000
v -0.200000 -0.406250 0.200000
v 0.200000 -0.500000 -0.200000
v 0.200000 -0.500000 0.200000
v -0.200000 -0.500000 -0.200000
v -0.200000 -0.500000 0.200000
v 0.140000 -0.406250 -0.140000
v 0.140000 -0.406250 0.140000
v -0.140000 -0.406250 -0.140000
v -0.140000 -0.406250 0.140000
v 0.140000 -0.376446 -0.140000
v 0.140000 -0.376446 0.140000
v -0.140000 -0.376446 -0.140000
v -0.140000 -0.376446 0.140000
v 0.063770 -0.376446 -0.098000
v 0.063770 -0.376446 0.098000
v -0.063770 -0.376446 -0.098000
v -0.063770 -0.376446 0.098000
v 0.063770 -0.397579 -0.098000
v 0.063770 -0.397579 0.098000
v -0.063770 -0.397579 -0.098000
v -0.063770 -0.397579 0.098000
v 0.034160 -0.397579 -0.052495
v 0.034160 -0.397579 0.052495
v -0.034160 -0.397579 -0.052495
v -0.034160 -0.397579 0.052495
v 0.027328 -0.024088 -0.300785
v 0.027328 0.024088 -0.231982
v -0.027328 -0.024088 -0.300785
v -0.027328 0.024088 -0.231982
vn -0.0000 -0.0000 -1.0000
vn -1.0000 -0.0000 -0.0000
vn -0.0000 -1.0000 -0.0000
vn -0.0000 -0.0000 1.0000
vn -0.0000 1.0000 -0.0000
vn 1.0000 -0.0000 -0.0000
vn -0.0000 -0.5536 -0.8328
vn -0.0000 0.8192 -0.5736
vn 0.9999 0.0145 -0.0040
vn -0.0000 0.5593 0.8290
vn -0.9999 0.0145 -0.0040
vt 0.867325 0.943490
vt 0.823099 0.943490
vt 0.823099 0.471745
vt 0.867325 0.471745
vt 0.911551 0.943490
vt 0.911551 0.471746
vt 0.955776 0.471745
vt 0.955776 0.943490
vt 0.925923 0.471745
vt 0.471375 0.471745
vt 0.471375 -0.000000
vt 0.925924 0.000000
vt 0.911551 0.943490
vt 0.867325 0.943490
vt 0.867325 0.471745
vt 0.911551 0.471745
vt 0.000000 0.000000
vt 0.471375 0.000000
vt 0.400668 0.070762
vt 0.070706 0.070762
vt 0.955776 0.943490
vt 0.955776 0.471745
vt 1.000000 0.471746
vt 1.000000 0.943490
vt 0.939983 0.000000
vt 0.939983 0.330222
vt 0.925924 0.330222
vt 0.925924 0.000000
vt 0.471375 0.471745
vt -0.000000 0.471745
vt 0.070706 0.400983
vt 0.400668 0.400983
vt 0.000000 0.471745
vt 0.329962 0.471745
vt 0.280468 0.561648
vt 0.049494 0.561648
vt 0.968102 0.000000
vt 0.968102 0.330221
vt 0.954043 0.330222
vt 0.954043 0.000000
vt 0.939983 0.330222
vt 0.939983 0.000000
vt 0.954043 0.000000
vt 0.954043 0.330222
vt 0.982161 0.000000
vt 0.982161 0.330222
vt 0.742526 0.951448
vt 0.742526 0.801032
vt 0.752496 0.801032
vt 0.752496 0.951448
vt -0.000000 0.801967
vt 0.049494 0.712064
vt 0.329962 0.801967
vt 0.280468 0.712064
vt 0.679363 0.948669
vt 0.528947 0.948669
vt 0.563868 0.895045
vt 0.644441 0.895045
vt 0.982161 0.231155
vt 0.982161 0.000000
vt 0.992130 -0.000000
vt 0.992130 0.231155
vt 0.762465 0.801032
vt 0.762465 0.951448
vt 0.752496 0.951448
vt 0.752496 0.801032
vt 0.992130 0.231155
vt 0.992130 0.462310
vt 0.982161 0.462310
vt 0.982161 0.231155
vt 0.823099 0.801032
vt 0.742526 0.801032
vt 0.750583 0.471745
vt 0.815042 0.471745
vt 0.679363 0.717696
vt 0.644441 0.771320
vt 0.528947 0.717696
vt 0.563868 0.771320
vt 0.571925 0.551924
vt 0.571925 0.471745
vt 0.636384 0.471745
vt 0.636384 0.551924
vt 0.329962 0.888397
vt 0.329962 0.764575
vt 0.506221 0.471745
vt 0.528947 0.552889
vt 0.742526 0.813522
vt 0.679363 0.920022
vt 0.679363 0.529944
vt 0.740302 0.471745
s 0
g Cube_frame
usemtl frame
f 1/1/1 5/2/1 7/3/1 3/4/1
f 4/5/2 3/6/2 7/7/2 8/8/2
f 8/9/3 7/10/3 5/11/3 6/12/3
f 6/13/4 2/14/4 4/15/4 8/16/4
f 3/17/5 4/18/5 12/19/5 11/20/5
f 6/21/6 5/22/6 1/23/6 2/24/6
f 12/25/4 10/26/4 14/27/4 16/28/4
f 2/29/5 1/30/5 9/31/5 10/32/5
f 4/18/5 2/29/5 10/32/5 12/19/5
f 1/30/5 3/17/5 11/20/5 9/31/5
f 15/33/5 16/34/5 20/35/5 19/36/5
f 11/37/2 12/38/2 16/39/2 15/40/2
f 9/41/1 11/42/1 15/43/1 13/44/1
f 10/38/6 9/37/6 13/45/6 14/46/6
f 17/47/4 19/48/4 23/49/4 21/50/4
f 13/51/5 15/33/5 19/36/5 17/52/5
f 14/53/5 13/51/5 17/52/5 18/54/5
f 16/34/5 14/53/5 18/54/5 20/35/5
f 24/55/5 22/56/5 26/57/5 28/58/5
f 18/59/2 17/60/2 21/61/2 22/62/2
f 20/63/1 18/64/1 22/65/1 24/66/1
f 19/67/6 20/68/6 24/69/6 23/70/6
f 23/75/5 24/55/5 28/58/5 27/76/5
f 21/77/5 23/75/5 27/76/5 25/78/5
f 22/56/5 21/77/5 25/78/5 26/57/5
g Cube_lever
usemtl lever
f 25/71/7 27/72/7 31/73/7 29/74/7
f 30/79/8 29/80/8 31/81/8 32/82/8
f 26/83/9 25/84/9 29/85/9 30/86/9
f 28/58/10 26/57/10 30/79/10 32/82/10
f 27/87/11 28/88/11 32/89/11 31/90/11
