# Blender 4.2.1 LTS
# www.blender.org
mtllib monitor_desk.mtl
o Cube
v -0.200000 -0.490625 0.200000
v -0.200000 -0.468750 0.200000
v -0.200000 -0.490625 -0.200000
v -0.200000 -0.468750 -0.200000
v 0.200000 -0.490625 0.200000
v 0.200000 -0.468750 0.200000
v 0.200000 -0.490625 -0.200000
v 0.200000 -0.468750 -0.200000
v -0.040000 -0.468750 0.040000
v -0.040000 -0.468750 -0.040000
v 0.040000 -0.468750 -0.040000
v 0.040000 -0.468750 0.040000
v 0.007250 -0.378316 0.040000
v 0.007250 -0.378316 -0.040000
v 0.055250 -0.375000 -0.040000
v 0.055250 -0.375000 0.040000
v -0.004800 0.113698 0.040000
v -0.004800 0.113698 -0.040000
v 0.004800 0.106082 -0.040000
v 0.004800 0.106082 0.040000
v 0.007250 -0.362277 0.054141
v 0.007250 -0.362277 -0.054141
v -0.004800 0.113698 0.054141
v -0.004800 0.113698 -0.054141
v -0.028035 -0.375567 0.400351
v -0.028035 -0.375567 -0.400351
v -0.040085 0.124730 0.400351
v -0.040085 0.124730 -0.400351
v -0.049803 -0.375917 0.400351
v -0.049803 -0.375917 -0.400351
v -0.061853 0.124380 0.400351
v -0.061853 0.124380 -0.400351
vn -1.0000 -0.0000 -0.0000
vn -0.0000 -0.0000 -1.0000
vn 1.0000 -0.0000 -0.0000
vn -0.0000 -0.0000 1.0000
vn -0.0000 -1.0000 -0.0000
vn -0.0000 1.0000 -0.0000
vn 0.9870 -0.1606 -0.0000
vn -0.8863 0.4631 -0.0000
vn 0.6215 0.7834 -0.0000
vn 0.9945 0.1043 -0.0000
vn 0.9945 0.0246 0.1014
vn 0.9996 0.0249 -0.0141
vn 0.9996 0.0249 0.0141
vn 0.3525 -0.9358 -0.0000
vn 0.9945 0.0246 -0.1014
vn 0.2984 0.9544 -0.0000
vn -0.9997 -0.0241 -0.0000
vn -0.0161 0.9999 -0.0000
vn 0.0161 -0.9999 -0.0000
vt 0.305216 0.718680
vt 0.281298 0.718680
vt 0.281298 0.281320
vt 0.305216 0.281320
vt 0.281298 0.281320
vt 0.305216 0.281320
vt 0.281298 0.718680
vt 0.281021 0.276723
vt 0.691240 0.276723
vt 0.691240 0.686942
vt 0.281021 0.686942
vt 0.718625 0.281353
vt 0.718625 0.718647
vt 0.543708 0.543729
vt 0.543708 0.456271
vt 0.432773 0.459547
vt 0.500917 0.459547
vt 0.500917 0.540453
vt 0.432773 0.540453
vt 0.281332 0.281353
vt 0.456249 0.456271
vt 0.281332 0.718647
vt 0.456249 0.543729
vt 0.079738 0.471837
vt 0.079738 0.528163
vt 0.068445 0.538120
vt 0.068445 0.461880
vt 0.445201 0.459057
vt 0.499860 0.459057
vt 0.499860 0.528770
vt 0.445201 0.528770
vt 0.399754 0.458673
vt 0.470033 0.458921
vt 0.483138 0.541327
vt 0.440981 0.538265
vt 0.465668 0.532631
vt 0.408633 0.534578
vt 0.440119 0.468954
vt 0.474259 0.465422
vt 0.067409 0.473220
vt 0.075613 0.473220
vt 0.075613 0.526780
vt 0.067409 0.526780
vt 0.031875 0.241263
vt 0.082514 0.241263
vt 0.064436 0.750044
vt 0.054908 0.758737
vt 0.082514 0.241263
vt 0.059481 0.758737
vt 0.049954 0.750045
vt 0.049149 0.345684
vt 0.100192 0.345684
vt 0.100192 0.654316
vt 0.049149 0.654316
vt 0.470003 0.332953
vt 0.469961 0.667440
vt 0.225503 0.675784
vt 0.225503 0.324216
vt 0.046743 0.241255
vt 0.046737 0.758745
vt 0.031868 0.758745
vt 0.031868 0.258114
vt 0.534627 0.534627
vt 0.534627 0.356462
vt 0.031874 0.758745
vt 0.031868 0.241255
vt 0.046743 0.258114
vt 0.046743 0.758745
vt 0.013622 0.687083
vt 0.013622 0.312787
vt 0.029906 0.312917
vt 0.029906 0.687213
vt 0.074303 0.432386
vt 0.074303 0.567613
vt 0.027216 0.999973
vt 0.027216 0.000027
vt 0.220385 0.674509
vt 0.220341 0.325899
vt 0.475165 0.316794
vt 0.475165 0.683206
vt 0.000021 0.567615
vt 0.000021 0.432386
vt 0.046190 0.000021
vt 0.046190 0.999978
vt 0.216573 0.521657
vt 0.783427 0.521657
vt 0.783427 0.876739
vt 0.216573 0.876739
vt 0.973427 0.782389
vt 0.973427 0.217611
vt 0.996250 0.217611
vt 0.996250 0.782389
vt 0.029910 0.312676
vt 0.029910 0.687193
vt 0.013618 0.687324
vt 0.013618 0.312807
vt 0.027217 0.000000
vt 0.027217 1.000000
vt 0.000027 1.000000
vt 0.000027 0.000000
s 0
g Cube_frame
usemtl frame
f 1/1/1 2/2/1 4/3/1 3/4/1
f 3/1/2 4/2/2 8/3/2 7/4/2
f 7/5/3 8/6/3 6/1/3 5/7/3
f 5/5/4 6/6/4 2/1/4 1/7/4
f 3/8/5 7/9/5 5/10/5 1/11/5
f 8/12/6 4/13/6 10/14/6 11/15/6
f 12/16/7 11/17/7 15/18/7 16/19/7
f 6/20/6 8/12/6 11/15/6 12/21/6
f 4/13/6 2/22/6 9/23/6 10/14/6
f 2/22/6 6/20/6 12/21/6 9/23/6
f 14/24/1 13/25/1 21/26/1 22/27/1
f 10/28/8 9/29/8 13/30/8 14/31/8
f 9/32/4 12/33/4 16/34/4 13/35/4
f 11/36/2 10/37/2 14/38/2 15/39/2
f 19/40/9 18/41/9 17/42/9 20/43/9
f 13/44/4 16/45/4 20/46/4 17/47/4
f 15/44/2 14/48/2 18/49/2 19/50/2
f 16/51/10 15/52/10 19/53/10 20/54/10
f 21/55/11 23/56/11 27/57/11 25/58/11
f 13/59/12 17/60/12 23/61/12 21/62/12
f 17/63/6 18/64/6 24/64/6 23/63/6
f 18/65/13 14/66/13 22/67/13 24/68/13
f 28/69/2 26/70/2 30/71/2 32/72/2
f 22/73/14 21/74/14 25/75/14 26/76/14
f 24/77/15 22/78/15 26/79/15 28/80/15
f 23/81/16 24/82/16 28/83/16 27/84/16
f 27/89/18 28/90/18 32/91/18 31/92/18
f 25/93/4 27/94/4 31/95/4 29/96/4
f 26/97/19 25/98/19 29/99/19 30/100/19
g Cube_screen
usemtl screen
f 30/85/17 29/86/17 31/87/17 32/88/17
