# Blender 4.2.1 LTS
# www.blender.org
mtllib power_panel.mtl
o Cube
v 0.300000 0.360000 0.435000
v 0.300000 -0.360000 0.435000
v 0.300000 0.360000 0.500000
v 0.300000 -0.360000 0.500000
v -0.300000 0.360000 0.435000
v -0.300000 -0.360000 0.435000
v -0.300000 0.360000 0.500000
v -0.300000 -0.360000 0.500000
v 0.288766 -0.346519 0.435000
v -0.288766 -0.346519 0.435000
v 0.288766 0.346519 0.435000
v -0.288766 0.346519 0.435000
v 0.288766 -0.346519 0.480000
v -0.288766 -0.346519 0.480000
v 0.288766 0.346519 0.480000
v -0.288766 0.346519 0.480000
v 0.140603 -0.255255 0.480000
v -0.140603 -0.255255 0.480000
v 0.140603 0.255255 0.480000
v -0.140603 0.255255 0.480000
v 0.140603 -0.242407 0.460629
v -0.140603 -0.242407 0.460629
v 0.140603 0.242407 0.460629
v -0.140603 0.242407 0.460629
v 0.121759 -0.234488 0.460629
v -0.121759 -0.234488 0.460629
v 0.121759 0.234488 0.460629
v -0.121759 0.234488 0.460629
v 0.121759 -0.234488 0.421083
v -0.121759 -0.234488 0.421083
v 0.121759 0.234488 0.421083
v -0.121759 0.234488 0.421083
v 0.100290 -0.234488 0.401497
v -0.100290 -0.234488 0.401497
v 0.100290 0.234488 0.401497
v -0.100290 0.234488 0.401497
v 0.121759 0.211039 0.458651
v 0.121759 -0.211039 0.458651
v -0.121759 0.211039 0.458651
v -0.121759 -0.211039 0.458651
v 0.121759 0.211039 0.423060
v 0.121759 -0.211039 0.423060
v -0.121759 0.211039 0.423060
v -0.121759 -0.211039 0.423060
v 0.148296 0.211039 0.452166
v 0.148296 -0.211039 0.452166
v 0.175774 0.211039 0.429546
v 0.175774 -0.211039 0.429546
v 0.190909 0.211039 0.493294
v 0.190909 -0.211039 0.493294
v 0.226464 0.211039 0.494902
v 0.226464 -0.211039 0.494902
v -0.154741 0.211039 0.455331
v -0.154741 -0.211039 0.455331
v -0.175445 0.211039 0.426381
v -0.175445 -0.211039 0.426381
v -0.198358 0.211039 0.497316
v -0.198358 -0.211039 0.497316
v -0.233938 0.211039 0.496422
v -0.233938 -0.211039 0.496422
v 0.000000 -0.234488 0.401497
v 0.100290 0.000000 0.401497
v -0.100290 0.000000 0.401497
v 0.000000 0.234488 0.401497
v 0.000000 0.000000 0.401497
v 0.000000 0.199315 0.401497
v 0.100290 0.199315 0.401497
v 0.100290 0.035173 0.401497
v 0.000000 0.035173 0.401497
v -0.100290 0.199315 0.401497
v -0.100290 0.035173 0.401497
v 0.000000 0.199315 0.401497
v 0.000000 0.035173 0.401497
v 0.000000 0.199315 0.390565
v 0.100290 0.199315 0.390565
v 0.100290 0.035173 0.390565
v 0.000000 0.035173 0.390565
v -0.100290 0.199315 0.390565
v -0.100290 0.035173 0.390565
v 0.000000 0.199315 0.390565
v 0.000000 0.035173 0.390565
v 0.094330 0.234488 0.448765
v 0.113811 0.234488 0.448765
v 0.094330 0.234488 0.432947
v 0.113811 0.234488 0.432947
v 0.094330 0.247225 0.448765
v 0.113811 0.247225 0.448765
v 0.094330 0.247225 0.432947
v 0.113811 0.247225 0.432947
vn -0.0000 1.0000 -0.0000
vn -0.0000 -0.0000 1.0000
vn -1.0000 -0.0000 -0.0000
vn -0.0000 -1.0000 -0.0000
vn 1.0000 -0.0000 -0.0000
vn -0.0000 -0.0000 -1.0000
vn -0.0000 0.8334 -0.5527
vn -0.0000 -0.8334 -0.5527
vn 0.6740 -0.0000 -0.7388
vn -0.6740 -0.0000 -0.7388
vn 0.1192 -0.0000 -0.9929
vn 0.2374 -0.0000 0.9714
vn -0.0452 -0.0000 0.9990
vn -0.6945 -0.0000 0.7195
vn 0.7902 -0.0000 -0.6129
vn -0.0617 -0.0000 -0.9981
vn -0.1002 -0.0000 0.9950
vn -0.0251 -0.0000 0.9997
vn -0.7675 -0.0000 -0.6410
vn 0.6935 -0.0000 0.7205
vt 0.881666 0.418194
vt 0.881666 -0.000000
vt 0.926946 -0.000000
vt 0.926946 0.418194
vt 0.418193 0.418194
vt 0.418193 0.000000
vt 0.836361 0.000000
vt 0.836361 0.418194
vt 0.836361 0.418194
vt 0.836361 0.000000
vt 0.881666 0.000000
vt 0.881666 0.418194
vt 0.892042 0.836389
vt 0.892042 0.418194
vt 0.937302 0.418194
vt 0.937302 0.836389
vt 0.846738 0.836389
vt 0.846738 0.418194
vt 0.892042 0.418194
vt 0.418193 0.418194
vt -0.000000 0.418194
vt 0.007830 0.410364
vt 0.410363 0.410364
vt 0.958311 0.402534
vt 0.958311 0.000000
vt 0.989659 -0.000000
vt 0.989659 0.402534
vt -0.000000 0.000000
vt 0.410363 0.007830
vt 0.007830 0.007830
vt 0.402533 0.418194
vt 0.402533 0.820728
vt 0.299265 0.767720
vt 0.299265 0.471203
vt 0.968666 0.820728
vt 0.968666 0.418194
vt 1.000000 0.418194
vt 1.000000 0.820728
vt 0.958311 0.000000
vt 0.958311 0.402534
vt 0.926946 0.402534
vt 0.926946 0.000000
vt 0.937302 0.820728
vt 0.937302 0.418194
vt 0.968666 0.418194
vt 0.968666 0.820728
vt 0.594584 0.699787
vt 0.594584 0.895785
vt 0.580847 0.895785
vt 0.580847 0.699787
vt 0.000000 0.820728
vt 0.000000 0.418194
vt 0.103268 0.471203
vt 0.103268 0.767720
vt 0.402533 0.699787
vt 0.415667 0.422794
vt 0.415667 0.695188
vt 0.553526 0.699787
vt 0.553526 0.996304
vt 0.540024 0.988842
vt 0.540024 0.707249
vt 0.553526 0.996304
vt 0.553526 0.699787
vt 0.567027 0.707249
vt 0.567027 0.988842
vt 0.580847 0.895785
vt 0.567027 0.895785
vt 0.567027 0.699787
vt 0.540024 0.699787
vt 0.540024 0.869517
vt 0.512488 0.869517
vt 0.512488 0.699787
vt 0.598530 0.699787
vt 0.585396 0.695188
vt 0.598530 0.418194
vt 0.585396 0.422794
vt 0.471302 0.699787
vt 0.471302 0.869517
vt 0.457658 0.854553
vt 0.457658 0.784652
vt 0.457658 0.714751
vt 0.498851 0.699787
vt 0.498851 0.869517
vt 0.490586 0.863977
vt 0.490586 0.850399
vt 0.430096 0.972181
vt 0.402533 0.972181
vt 0.403911 0.958561
vt 0.428717 0.958561
vt 0.430096 0.699787
vt 0.457658 0.699787
vt 0.456280 0.713407
vt 0.431474 0.713407
vt 0.768259 0.690588
vt 0.768259 0.826784
vt 0.768259 0.806355
vt 0.768259 0.711017
vt 0.768259 0.418194
vt 0.768259 0.690588
vt 0.753261 0.690588
vt 0.753261 0.554391
vt 0.753261 0.418194
vt 0.598530 0.690588
vt 0.613460 0.418194
vt 0.613460 0.554391
vt 0.613460 0.690588
vt 0.498851 0.854553
vt 0.498851 0.784652
vt 0.498851 0.714751
vt 0.692901 0.935742
vt 0.692901 0.690588
vt 0.730560 0.690588
vt 0.730560 0.935742
vt 0.191510 0.820728
vt 0.213638 0.831887
vt 0.201222 0.851372
vt 0.176726 0.855181
vt 0.431474 0.958561
vt 0.402533 0.699787
vt 0.403911 0.713407
vt 0.428717 0.713407
vt 0.457658 0.972181
vt 0.456280 0.958561
vt 0.260940 0.846339
vt 0.283596 0.856417
vt 0.258713 0.908378
vt 0.248623 0.885716
vt 0.840950 0.663348
vt 0.840950 0.908503
vt 0.822404 0.908502
vt 0.822404 0.663348
vt 0.248623 0.831820
vt 0.270785 0.820728
vt 0.235807 0.908391
vt 0.213638 0.897290
vt 0.225958 0.882774
vt 0.248623 0.872704
vt 0.793026 0.663348
vt 0.793026 0.908502
vt 0.768259 0.908502
vt 0.768259 0.663348
vt 0.213638 0.843388
vt 0.223731 0.820728
vt 0.647348 0.935742
vt 0.647348 0.690588
vt 0.164306 0.882905
vt 0.139801 0.879105
vt 0.165000 0.820728
vt 0.176726 0.842589
vt 0.176726 0.902387
vt 0.154590 0.913555
vt 0.767973 0.690588
vt 0.767973 0.935742
vt 0.730560 0.935742
vt 0.730560 0.690588
vt 0.768259 0.663348
vt 0.791220 0.418194
vt 0.791220 0.663348
vt 0.821947 0.663348
vt 0.821947 0.418194
vt 0.846738 0.418194
vt 0.846738 0.663348
vt 0.647348 0.690588
vt 0.647348 0.935742
vt 0.598530 0.935742
vt 0.598530 0.690588
vt 0.213638 0.891680
vt 0.201916 0.913542
vt 0.683361 0.690588
vt 0.683361 0.554391
vt 0.613460 0.533962
vt 0.683361 0.533962
vt 0.377779 0.820728
vt 0.377779 0.890629
vt 0.370166 0.890629
vt 0.370166 0.820728
vt 0.753261 0.533962
vt 0.283596 0.890629
vt 0.283596 0.820728
vt 0.304026 0.820728
vt 0.304026 0.890629
vt 0.324455 0.916066
vt 0.324455 0.820728
vt 0.332075 0.820728
vt 0.332075 0.916066
vt 0.304026 0.890629
vt 0.304026 0.820728
vt 0.324455 0.820728
vt 0.324455 0.890629
vt 0.418193 0.418194
vt 0.418193 0.281998
vt 0.418193 0.302427
vt 0.418193 0.397765
vt 0.000000 0.916066
vt 0.000000 0.820728
vt 0.069901 0.820728
vt 0.069901 0.916066
vt 0.069901 0.916066
vt 0.069901 0.820728
vt 0.139801 0.820728
vt 0.139801 0.916066
vt 0.339695 0.820728
vt 0.339695 0.916066
vt 0.332075 0.916066
vt 0.332075 0.820728
vt 0.362551 0.820728
vt 0.362551 0.890629
vt 0.354935 0.890629
vt 0.354935 0.820728
vt 0.370166 0.820728
vt 0.370166 0.890629
vt 0.362551 0.890629
vt 0.362551 0.820728
vt 0.339695 0.916066
vt 0.339695 0.820728
vt 0.347315 0.820728
vt 0.347315 0.916066
vt 0.354935 0.820728
vt 0.354935 0.916066
vt 0.347315 0.916066
vt 0.347315 0.820728
vt 0.385391 0.820728
vt 0.385391 0.890629
vt 0.377779 0.820728
vt 0.854135 0.836389
vt 0.854135 0.847414
vt 0.846738 0.847414
vt 0.846738 0.836389
vt 0.479567 0.863977
vt 0.479567 0.850399
vt 0.396410 0.820728
vt 0.396410 0.834307
vt 0.385391 0.834307
vt 0.385391 0.820728
vt 0.392789 0.834307
vt 0.392789 0.847885
vt 0.385391 0.847885
vt 0.385391 0.834307
vt 0.854135 0.847414
vt 0.854135 0.858439
vt 0.846738 0.858439
vt 0.846738 0.847414
vt 0.400186 0.834307
vt 0.400186 0.847884
vt 0.392789 0.847884
vt 0.392789 0.834307
s 0
g Cube_box
usemtl box
f 1/1/1 5/2/1 7/3/1 3/4/1
f 4/5/2 3/6/2 7/7/2 8/8/2
f 8/9/3 7/10/3 5/11/3 6/12/3
f 6/13/4 2/14/4 4/15/4 8/16/4
f 2/17/5 1/18/5 3/19/5 4/13/5
f 2/20/6 6/21/6 10/22/6 9/23/6
f 9/24/1 10/25/1 14/26/1 13/27/1
f 5/28/6 1/6/6 11/29/6 12/30/6
f 1/6/6 2/20/6 9/23/6 11/29/6
f 6/21/6 5/28/6 12/30/6 10/22/6
f 15/31/6 13/32/6 17/33/6 19/34/6
f 12/35/4 11/36/4 15/37/4 16/38/4
f 11/39/3 9/40/3 13/41/3 15/42/3
f 10/43/5 12/44/5 16/45/5 14/46/5
f 14/51/6 16/52/6 20/53/6 18/54/6
f 13/32/6 14/51/6 18/54/6 17/33/6
f 16/52/6 15/31/6 19/34/6 20/53/6
g Cube_panel
usemtl panel
f 20/47/7 19/48/7 23/49/7 24/50/7
f 22/55/6 24/31/6 28/56/6 26/57/6
f 19/58/5 17/59/5 21/60/5 23/61/5
f 18/62/3 20/63/3 24/64/3 22/65/3
f 17/50/8 18/66/8 22/67/8 21/68/8
f 25/69/4 26/70/4 30/71/4 29/72/4
f 21/73/6 22/55/6 26/57/6 25/74/6
f 24/31/6 23/75/6 27/76/6 28/56/6
f 23/75/6 21/73/6 25/74/6 27/76/6
f 32/77/1 31/78/1 35/79/1 64/80/1 36/81/1
f 28/82/1 27/83/1 83/84/1 82/85/1
f 25/86/5 29/87/5 42/88/5 38/89/5
f 28/90/3 32/91/3 43/92/3 39/93/3
f 35/94/1 62/95/1 68/96/1 67/97/1
f 31/98/9 29/99/9 33/100/9 62/101/9 35/102/9
f 30/103/10 32/75/10 36/104/10 63/105/10 34/106/10
f 29/72/4 30/71/4 34/107/4 61/108/4 33/109/4
f 42/110/11 41/111/11 47/112/11 48/113/11
f 44/114/4 40/115/4 54/116/4 56/117/4
f 26/86/3 28/90/3 39/93/3 40/118/3
f 29/87/5 31/119/5 41/120/5 42/88/5
f 31/119/5 27/90/5 37/121/5 41/120/5
f 30/122/3 26/86/3 40/118/3 44/123/3
f 27/90/5 25/86/5 38/89/5 37/121/5
f 32/91/3 30/122/3 44/123/3 43/92/3
f 46/124/4 48/125/4 52/126/4 50/127/4
f 37/128/12 38/129/12 46/130/12 45/131/12
f 38/132/4 42/133/4 48/125/4 46/124/4
f 41/134/1 37/135/1 45/136/1 47/137/1
f 49/138/13 50/139/13 52/140/13 51/141/13
f 45/131/14 46/130/14 50/139/14 49/138/14
f 47/137/1 45/136/1 49/142/1 51/143/1
f 48/144/15 47/145/15 51/111/15 52/110/15
f 53/146/1 55/147/1 59/148/1 57/149/1
f 39/150/1 43/151/1 55/147/1 53/146/1
f 43/152/16 44/153/16 56/154/16 55/155/16
f 40/156/17 39/98/17 53/157/17 54/158/17
f 58/159/18 57/160/18 59/161/18 60/162/18
f 55/163/19 56/164/19 60/165/19 59/166/19
f 56/117/4 54/116/4 58/167/4 60/168/4
f 54/158/20 53/157/20 57/160/20 58/159/20
f 61/169/6 65/170/6 62/101/6 33/100/6
f 34/106/6 63/105/6 65/170/6 61/169/6
f 65/170/6 63/105/6 71/171/6 73/172/6
f 68/173/4 69/174/4 77/175/4 76/176/4
f 62/101/6 65/170/6 69/172/6 68/177/6
f 64/178/6 35/179/6 67/180/6 66/181/6
f 65/20/1 64/20/1 66/20/1 69/20/1
f 71/182/3 70/183/3 78/184/3 79/185/3
f 36/186/6 64/187/6 72/188/6 70/189/6
f 63/190/1 36/191/1 70/192/1 71/193/1
f 64/20/1 65/20/1 73/20/1 72/20/1
f 77/194/6 74/195/6 75/196/6 76/197/6
f 79/198/6 78/199/6 80/200/6 81/201/6
f 72/202/5 73/203/5 81/204/5 80/205/5
f 66/206/1 67/207/1 75/208/1 74/209/1
f 70/210/1 72/211/1 80/212/1 78/213/1
f 69/214/3 66/215/3 74/216/3 77/217/3
f 67/218/5 68/219/5 76/220/5 75/221/5
f 73/222/4 71/223/4 79/174/4 81/224/4
f 27/83/1 31/78/1 85/229/1 83/84/1
f 32/77/1 28/82/1 82/85/1 84/230/1
f 31/78/1 32/77/1 84/230/1 85/229/1
g Cube_LED
usemtl LED
f 84/225/3 82/226/3 86/227/3 88/228/3
f 86/231/1 87/232/1 89/233/1 88/234/1
f 85/235/6 84/236/6 88/237/6 89/238/6
f 83/239/5 85/240/5 89/241/5 87/242/5
f 82/243/2 83/244/2 87/245/2 86/246/2
