# Blender 4.2.1 LTS
# www.blender.org
mtllib suitlocker.mtl
o Player
v -0.210000 0.273543 0.420760
v -0.210000 0.246896 0.212457
v -0.210000 0.898451 0.340819
v -0.210000 0.871804 0.132517
v -0.420017 0.896994 0.157330
v -0.419985 0.873651 0.366028
v -0.209985 0.873655 0.365997
v -0.210017 0.896999 0.157298
v -0.420013 0.270899 0.087298
v -0.419982 0.247555 0.295997
v -0.209981 0.247560 0.295965
v -0.210013 0.270904 0.087267
v -0.210000 -0.373226 0.398293
v -0.210000 -0.365478 0.188436
v -0.210000 0.256346 0.421537
v -0.210000 0.264094 0.211680
v -0.210025 0.977703 0.425133
v -0.209975 0.792535 0.048155
v -0.210019 1.354682 0.239964
v -0.209968 1.169513 -0.137014
v 0.210000 0.246896 0.212457
v 0.210000 0.273543 0.420760
v 0.210000 0.871804 0.132517
v 0.210000 0.898451 0.340819
v 0.210000 0.246896 0.212457
v 0.210000 0.273543 0.420760
v 0.420000 0.273543 0.420760
v 0.420000 0.246896 0.212457
v 0.210000 0.871803 0.132517
v 0.210000 0.898450 0.340819
v 0.420000 0.898450 0.340819
v 0.420000 0.871803 0.132517
v 0.000000 -0.365478 0.188436
v -0.000000 -0.373226 0.398293
v 0.000000 0.256346 0.421537
v 0.000000 0.264094 0.211680
v 0.210025 0.792551 0.048203
v 0.209975 0.977720 0.425181
v 0.210032 1.169529 -0.136966
v 0.209982 1.354698 0.240012
v 0.210000 0.264094 0.211680
v 0.210000 0.256346 0.421537
v 0.210000 -0.365478 0.188436
v 0.210000 -0.373226 0.398293
v 0.000000 -0.365478 0.188436
v -0.000000 -0.373226 0.398293
v -0.000000 0.256346 0.421537
v -0.000000 0.264094 0.211680
v -0.230028 0.968569 0.451900
v -0.229973 0.765765 0.039019
v -0.230021 1.381450 0.249096
v -0.229966 1.178646 -0.163785
v 0.230027 0.765783 0.039071
v 0.229972 0.968587 0.451952
v 0.230034 1.178664 -0.163733
v 0.229979 1.381468 0.249148
v 0.210000 0.871804 0.132517
v 0.210000 0.871804 0.132517
v 0.210000 0.898451 0.340819
v 0.210000 0.898451 0.340819
v 0.210000 0.273543 0.420760
v 0.210000 0.273543 0.420760
v 0.210000 0.246896 0.212457
v 0.210000 0.246896 0.212457
v -0.210000 0.898451 0.340819
v -0.210000 0.898451 0.340819
v -0.210000 0.273543 0.420760
v -0.210000 0.273543 0.420760
v -0.210000 0.871804 0.132517
v -0.210000 0.871804 0.132517
v -0.210000 0.246896 0.212457
v -0.210000 0.246896 0.212457
v -0.420017 0.896994 0.157330
v -0.420017 0.896994 0.157330
v -0.420013 0.270899 0.087298
v -0.420013 0.270899 0.087298
v -0.209985 0.873655 0.365997
v -0.209985 0.873655 0.365997
v -0.209981 0.247560 0.295965
v -0.209981 0.247560 0.295965
v -0.419985 0.873651 0.366028
v -0.419985 0.873651 0.366028
v -0.419982 0.247555 0.295997
v -0.419982 0.247555 0.295997
v -0.210017 0.896999 0.157298
v -0.210017 0.896999 0.157298
v -0.210013 0.270904 0.087267
v -0.210013 0.270904 0.087267
v -0.000000 -0.373226 0.398293
v -0.000000 -0.373226 0.398293
v 0.000000 -0.365478 0.188436
v 0.000000 -0.365478 0.188436
v -0.210000 -0.373226 0.398293
v -0.210000 -0.373226 0.398293
v -0.210000 0.256346 0.421537
v -0.210000 0.256346 0.421537
v -0.210000 0.264094 0.211680
v -0.210000 0.264094 0.211680
v -0.210000 -0.365478 0.188436
v -0.210000 -0.365478 0.188436
v 0.210032 1.169529 -0.136966
v 0.210032 1.169529 -0.136966
v 0.209982 1.354698 0.240012
v 0.209982 1.354698 0.240012
v 0.209975 0.977720 0.425181
v 0.209975 0.977720 0.425181
v 0.210025 0.792551 0.048203
v 0.210025 0.792551 0.048203
v -0.210019 1.354682 0.239964
v -0.210019 1.354682 0.239964
v -0.210025 0.977703 0.425133
v -0.210025 0.977703 0.425133
v -0.209968 1.169513 -0.137014
v -0.209968 1.169513 -0.137014
v -0.209975 0.792535 0.048155
v -0.209975 0.792535 0.048155
v 0.210000 0.871803 0.132517
v 0.210000 0.871803 0.132517
v 0.210000 0.898450 0.340819
v 0.210000 0.898450 0.340819
v 0.210000 0.273543 0.420760
v 0.210000 0.273543 0.420760
v 0.210000 0.246896 0.212457
v 0.210000 0.246896 0.212457
v 0.420000 0.898450 0.340819
v 0.420000 0.898450 0.340819
v 0.420000 0.273543 0.420760
v 0.420000 0.273543 0.420760
v 0.420000 0.871803 0.132517
v 0.420000 0.871803 0.132517
v 0.420000 0.246896 0.212457
v 0.420000 0.246896 0.212457
v 0.000000 0.256346 0.421537
v 0.000000 0.256346 0.421537
v -0.000000 0.256346 0.421537
v -0.000000 0.256346 0.421537
v 0.210000 0.256346 0.421537
v 0.210000 0.256346 0.421537
v -0.000000 -0.373226 0.398293
v -0.000000 -0.373226 0.398293
v 0.000000 0.264094 0.211680
v 0.000000 0.264094 0.211680
v 0.210000 -0.373226 0.398293
v 0.210000 -0.373226 0.398293
v 0.000000 -0.365478 0.188436
v 0.000000 -0.365478 0.188436
v 0.210000 -0.365478 0.188436
v 0.210000 -0.365478 0.188436
v 0.210000 0.264094 0.211680
v 0.210000 0.264094 0.211680
v -0.000000 0.264094 0.211680
v -0.000000 0.264094 0.211680
v 0.230034 1.178664 -0.163733
v 0.230034 1.178664 -0.163733
v 0.229979 1.381468 0.249148
v 0.229979 1.381468 0.249148
v 0.229972 0.968587 0.451952
v 0.229972 0.968587 0.451952
v 0.230027 0.765783 0.039071
v 0.230027 0.765783 0.039071
v -0.230021 1.381450 0.249096
v -0.230021 1.381450 0.249096
v -0.230028 0.968569 0.451900
v -0.230028 0.968569 0.451900
v -0.229966 1.178646 -0.163785
v -0.229966 1.178646 -0.163785
v -0.229973 0.765765 0.039019
v -0.229973 0.765765 0.039019
v 0.500000 1.500000 -0.500000
v 0.500000 -0.500000 -0.500000
v 0.500000 1.500000 0.500000
v 0.500000 -0.500000 0.500000
v -0.500000 1.500000 -0.500000
v -0.500000 -0.500000 -0.500000
v -0.500000 1.500000 0.500000
v -0.500000 -0.500000 0.500000
v 0.450000 -0.462606 -0.500000
v -0.450000 -0.462606 -0.500000
v 0.450000 1.462606 -0.500000
v -0.450000 1.462606 -0.500000
v 0.450000 -0.462606 0.449384
v -0.450000 -0.462606 0.449384
v 0.450000 1.462606 0.449384
v -0.450000 1.462606 0.449384
v 0.450000 0.500000 0.449384
v 0.450000 1.462606 -0.443972
v 0.450000 -0.462606 -0.443972
v 0.450000 1.462606 -0.486850
v 0.450000 -0.462606 -0.486850
v -0.457698 1.462606 -0.486850
v -0.457698 1.462606 -0.443972
v -0.457698 -0.462606 -0.486850
v -0.457698 -0.462606 -0.443972
v -0.457698 0.981303 -0.443972
v -0.457698 0.018697 -0.443972
v -0.457698 0.500000 -0.443972
v 0.450000 -0.462606 -0.474685
vn -0.0000 0.1269 0.9919
vn -1.0000 -0.0000 -0.0000
vn -0.0000 -0.1269 -0.9919
vn -0.0000 -0.9919 0.1269
vn -0.0000 0.9919 -0.1269
vn 0.0002 -0.1112 0.9938
vn 1.0000 -0.0000 -0.0002
vn -0.0000 -0.9993 -0.0369
vn -0.0001 0.4409 0.8976
vn -1.0000 -0.0000 -0.0001
vn 0.0001 -0.4409 -0.8976
vn -0.0000 -0.8976 0.4409
vn -0.0000 0.8976 -0.4409
vn -0.0000 -0.0369 0.9993
vn -0.0000 0.0369 -0.9993
vn 1.0000 -0.0000 -0.0000
vn 1.0000 -0.0000 0.0001
vn -0.0000 0.9993 0.0369
vn -0.0002 0.1112 -0.9938
vn -1.0000 -0.0000 0.0002
vn -0.0000 0.9938 0.1112
vn -0.0000 -0.9938 -0.1112
vn -0.0000 1.0000 -0.0000
vn -0.0000 -0.0000 1.0000
vn -0.0000 -1.0000 -0.0000
vn -0.0000 -0.0000 -1.0000
vt 0.625000 0.375000
vt 0.500000 0.375000
vt 0.500000 0.000000
vt 0.625000 0.000000
vt 0.437500 0.375000
vt 0.437500 0.000000
vt 0.312500 0.375000
vt 0.312500 0.000000
vt 0.562500 0.375000
vt 0.562500 0.500000
vt 0.437500 0.500000
vt 0.312500 0.500000
vt 0.125000 0.375000
vt 0.125000 0.000000
vt 0.187500 0.000000
vt 0.187500 0.375000
vt 0.812500 0.375000
vt 0.875000 0.375000
vt 0.875000 0.000000
vt 0.812500 0.000000
vt 0.750000 0.375000
vt 0.750000 0.000000
vt 0.187500 0.500000
vt 0.125000 0.500000
vt 0.000000 0.375000
vt 0.062500 0.375000
vt 0.062500 0.000000
vt 0.000000 0.000000
vt 0.500000 0.750000
vt 0.375000 0.750000
vt 0.375000 0.500000
vt 0.500000 0.500000
vt 0.250000 0.750000
vt 0.250000 0.500000
vt 0.125000 0.750000
vt 0.375000 1.000000
vt 0.250000 1.000000
vt 0.125000 1.000000
vt 0.250000 0.375000
vt 0.250000 0.000000
vt 0.812500 0.500000
vt 0.750000 0.500000
vt 0.687500 0.375000
vt 0.687500 0.500000
vt 0.000000 0.750000
vt 0.000000 0.500000
vt 0.062500 0.500000
vt 0.687500 0.000000
vt 1.000000 0.750000
vt 0.875000 0.750000
vt 0.875000 0.500000
vt 1.000000 0.500000
vt 0.750000 0.750000
vt 0.625000 0.750000
vt 0.625000 0.500000
vt 0.875000 1.000000
vt 0.750000 1.000000
vt 0.625000 1.000000
vt 0.812452 0.416774
vt 0.812452 0.625160
vt 0.604065 0.625160
vt 0.604065 0.416774
vt 0.000000 0.416774
vt 0.208387 0.000000
vt 0.208387 0.416774
vt 0.416774 0.000000
vt 0.416774 0.416774
vt 0.812452 0.625160
vt 0.812452 0.833547
vt 0.604065 0.833547
vt 0.604065 0.625160
vt 0.416774 0.416774
vt 0.416774 0.000000
vt 0.625160 0.000000
vt 0.625160 0.416774
vt 0.000000 0.833547
vt 0.000000 0.416774
vt 0.010419 0.424566
vt 0.010419 0.825755
vt 0.409458 0.431926
vt 0.538525 0.431926
vt 0.538525 0.435556
vt 0.538525 0.439961
vt 0.538525 0.568074
vt 0.409458 0.568074
vt 0.208387 0.833547
vt 0.197967 0.825755
vt 0.208387 0.416774
vt 0.197967 0.424566
vt 0.625160 0.401189
vt 0.625160 0.000000
vt 0.812709 0.000000
vt 0.812709 0.200594
vt 0.812709 0.401189
vt 0.323401 0.500000
vt 0.323401 0.655811
vt 0.178800 0.655811
vt 0.171859 0.655811
vt 0.169731 0.655811
vt 0.169731 0.344189
vt 0.178800 0.344189
vt 0.323401 0.344189
vt 0.406226 0.817962
vt 0.406226 0.416774
vt 0.604065 0.416774
vt 0.604065 0.817962
vt 0.383747 0.404804
vt 0.564236 0.404804
vt 0.564236 0.595196
vt 0.383747 0.595196
vt 0.383747 0.416040
vt 0.383747 0.409880
vt 0.942959 0.250000
vt 0.942959 0.000000
vt 0.958912 0.000000
vt 0.958912 1.000000
vt 0.942959 1.000000
vt 0.942959 0.750000
vt 0.942959 0.500000
s 0
g Player_character2
usemtl character2
f 59/1/1 3/2/1 1/3/1 22/4/1
f 65/2/2 4/5/2 2/6/2 67/3/2
f 69/5/3 57/7/3 63/8/3 71/6/3
f 21/9/4 61/10/4 68/11/4 72/5/4
f 70/5/5 66/11/5 24/12/5 23/7/5
f 48/13/2 145/14/2 46/15/2 135/16/2
f 7/17/6 6/18/6 10/19/6 11/20/6
f 8/21/7 77/17/7 79/20/7 12/22/7
f 33/16/8 34/23/8 13/24/8 14/13/8
f 15/25/2 16/26/2 99/27/2 93/28/2
f 103/29/9 19/30/9 17/31/9 38/32/9
f 109/30/10 20/33/10 18/34/10 111/31/10
f 113/33/11 101/35/11 107/24/11 115/34/11
f 37/30/12 105/36/12 112/37/12 116/33/12
f 114/33/13 110/37/13 40/38/13 39/35/13
f 35/16/14 95/39/14 94/40/14 89/15/14
f 149/26/15 43/27/15 45/14/15 151/13/15
f 97/26/15 141/13/15 91/14/15 100/27/15
f 25/21/4 28/17/4 27/41/4 26/42/4
f 32/43/5 29/21/5 30/42/5 31/44/5
f 47/16/14 139/15/14 44/40/14 42/39/14
f 36/13/16 133/16/16 90/15/16 92/14/16
f 137/25/16 143/28/16 147/27/16 41/26/16
f 60/39/16 62/40/16 64/8/16 58/7/16
f 104/45/17 106/46/17 108/24/17 102/35/17
f 98/13/18 96/24/18 134/47/18 142/26/18
f 5/43/19 85/21/19 87/22/19 9/48/19
f 81/1/20 73/43/20 75/48/20 83/4/20
f 125/1/16 127/4/16 131/48/16 129/43/16
f 74/43/21 82/44/21 78/42/21 86/21/21
f 130/43/3 132/48/3 123/22/3 117/21/3
f 146/16/8 148/13/8 144/24/8 140/23/8
f 118/21/2 124/22/2 121/20/2 119/17/2
f 88/21/22 80/42/22 84/41/22 76/17/22
f 120/17/1 122/20/1 128/19/1 126/18/1
f 150/13/18 152/26/18 136/47/18 138/24/18
f 155/49/9 51/50/9 49/51/9 54/52/9
f 161/50/10 52/53/10 50/42/10 163/51/10
f 165/53/11 153/54/11 159/55/11 167/42/11
f 53/50/12 157/56/12 164/57/12 168/53/12
f 166/53/13 162/57/13 56/58/13 55/54/13
f 156/29/17 158/32/17 160/55/17 154/54/17
g Player_Locker
usemtl Locker
f 169/59/23 173/60/23 175/61/23 171/62/23
f 172/63/24 171/28/24 175/64/24 176/65/24
f 176/65/2 175/64/2 173/66/2 174/67/2
f 174/68/25 170/69/25 172/70/25 176/71/25
f 170/72/16 169/73/16 171/74/16 172/75/16
f 174/76/26 173/77/26 180/78/26 178/79/26
f 180/80/25 179/81/25 188/82/25 186/83/25 183/84/25 184/85/25
f 170/86/26 174/76/26 178/79/26 177/87/26
f 173/77/26 169/88/26 179/89/26 180/78/26
f 169/88/26 170/86/26 177/87/26 179/89/26
f 182/90/26 184/91/26 183/92/26 185/93/26 181/94/26
f 185/95/2 183/96/2 186/97/2 188/98/2 179/99/2 177/100/2 187/101/2 181/102/2
f 178/103/16 180/104/16 184/105/16 182/106/16
f 177/107/23 178/108/23 182/109/23 181/110/23 187/111/23 189/112/23
g Player_Window
usemtl Window
f 194/113/2 191/114/2 190/115/2 192/116/2 193/117/2 195/118/2 196/119/2
